<svg width="103" height="35" viewBox="0 0 103 35" fill="none" xmlns="http://www.w3.org/2000/svg">
<path d="M23.2417 32.2791L29.4056 32.4068C27.2812 31.6726 25.2212 30.7787 23.2417 29.7251V32.2791ZM32.5278 31.4331V32.2791L29.4056 32.4068C35.2798 34.4021 40.6551 34.6735 44.6464 33.5561C41.4437 33.5881 37.2754 33.1411 32.5278 31.4331ZM98.3351 13.0444C100.894 13.0444 102.986 10.9852 102.986 8.43125C102.986 5.87726 100.91 4.52045 98.3351 4.52045C95.7762 4.52045 93.684 5.89322 93.684 8.43125C93.684 10.9693 95.7601 13.0444 98.3351 13.0444ZM93.6679 32.2791H102.986V14.6406H93.6679V32.2791ZM81.8068 32.2791H91.1251V1.10449L81.8068 5.46223V32.2791ZM76.8178 13.22C73.8887 10.3148 68.7065 10.4904 68.7065 10.4904C68.7065 10.4904 63.5082 10.3148 60.5953 13.22C57.6662 16.1251 57.8915 18.6313 57.8915 21.6162C57.8915 24.6012 57.6662 27.0913 60.5953 29.9965C63.5243 32.9017 68.7065 32.7261 68.7065 32.7261C68.7065 32.7261 73.9048 32.9017 76.8178 29.9965C79.7468 27.0913 79.5215 24.6012 79.5215 21.6162C79.5054 18.6153 79.7307 16.1092 76.8178 13.22ZM70.4125 24.697C70.4125 25.2716 70.1228 26.6923 68.6904 26.6923C67.2581 26.6923 66.9684 25.2716 66.9684 24.697V18.2482C66.9684 16.8594 68.1432 16.5082 68.6904 16.5082C69.2376 16.5082 70.4125 16.8435 70.4125 18.2482V24.697ZM53.3209 13.22C50.3918 10.3148 45.2096 10.4904 45.2096 10.4904C45.2096 10.4904 40.0275 10.3148 37.0984 13.22C36.7926 13.5233 36.5029 13.8425 36.2454 14.1777C30.0976 9.45285 24.5775 6.75519 19.8137 4.42467V1.12045L16.1926 2.81247C7.43761 -0.715232 1.86918 -0.092696 0.533396 2.82843C0.533396 2.82843 -3.47395 8.06411 10.4793 20.5148V32.2791H19.7976V27.7139C18.7515 27.0435 17.7054 26.3251 16.6754 25.543C14.2936 23.7552 12.2657 22.0951 10.4954 20.5308V15.5824C12.6037 17.9289 15.404 20.5946 19.0895 23.6115L19.8137 24.1862V19.4294C19.8137 18.328 20.0873 16.5242 21.5518 16.5242C23.0164 16.5242 23.2578 17.6256 23.2578 18.9186V26.6923C26.1546 28.6397 29.2607 30.22 32.5439 31.4172V16.4284C32.5439 13.4435 30.3873 10.4585 26.0098 10.4585C23.467 10.4425 21.1012 11.7674 19.8137 13.9543V5.28665C26.557 8.6228 33.3164 12.7092 35.8914 14.5928C34.2498 16.9233 34.3946 19.0782 34.3946 21.5683C34.3946 24.5533 34.1693 27.0435 37.0984 29.9486C40.0275 32.8538 45.2096 32.6782 45.2096 32.6782C45.2096 32.6782 50.4079 32.8538 53.3209 29.9486C56.25 27.0435 56.0085 24.5533 56.0085 21.5683C56.0085 18.6153 56.25 16.1092 53.3209 13.22ZM10.4793 5.46223V15.5665C2.64168 6.86693 4.21886 3.435 4.81433 2.94017C6.98699 1.12045 10.8495 1.66317 15.1787 3.27538L10.4793 5.46223ZM46.9317 24.697C46.9317 25.2716 46.642 26.6923 45.2096 26.6923C43.7773 26.6923 43.4876 25.2716 43.4876 24.697V18.2482C43.4876 16.8594 44.6625 16.5082 45.2096 16.5082C45.7568 16.5082 46.9317 16.8435 46.9317 18.2482V24.697Z" fill="#FF7B47"/>
</svg>
