<svg width="84" height="60" viewBox="0 0 84 60" fill="none" xmlns="http://www.w3.org/2000/svg">
<path d="M0.486328 1.84948H13.0984V35.8641C13.0984 41.2589 15.5301 44.4696 17.5078 45.8061C15.449 47.6152 9.20781 49.2125 4.50664 45.3498C1.75078 43.068 0.486328 39.2705 0.486328 35.7337V1.84948ZM79.2553 30.1271V26.5415H83.1135V14.0243H78.8824C77.2451 6.47821 70.5824 0.871582 62.6228 0.871582C53.4475 0.871582 45.9742 8.36882 45.9742 17.61V46.8166C48.568 47.1915 51.7129 46.7677 54.3553 44.5348C57.1273 42.2531 58.3756 38.4719 58.3756 34.9188V33.8268H64.6654V21.3097H58.3756V17.5122C58.3756 11.873 66.8377 11.873 66.8377 17.5122V30.0782C66.8377 39.3031 74.2947 46.8166 83.4863 46.8166V34.3484C81.1357 34.3484 79.2553 32.4415 79.2553 30.1271ZM31.5465 13.9917V32.4089C31.5465 34.9188 27.6883 34.9188 27.6883 32.4089V13.9917H15.2383V35.6196C15.2383 39.4986 16.5352 44.4208 22.5332 46.0343C28.5312 47.6315 31.968 44.3067 31.968 44.3067C31.6275 46.4906 29.6174 48.1042 26.3104 48.4301C23.7977 48.6909 20.6041 47.8434 19.0154 47.1589V58.6166C23.0844 59.839 27.3641 60.2138 31.5951 59.3826C39.2305 57.8995 44.0451 51.4942 44.0451 42.9539V13.9103H31.5465V13.9917Z" fill="#FF7B47"/>
</svg>
