<svg width="103" height="75" viewBox="0 0 103 75" fill="none" xmlns="http://www.w3.org/2000/svg">
<path d="M102.986 0C90.1088 8.6825 88.7382 14.9838 87.6226 16.9114C86.5548 18.8877 85.7579 26.6793 83.9091 30.4536C82.0444 34.2765 75.271 37.2894 73.3745 38.5529C71.5098 39.8164 68.8641 44.7246 66.6966 48.9525C49.4682 48.2397 40.0173 55.2376 25.3866 64.1145C30.0723 62.5432 32.2876 61.4093 32.2876 61.4093C47.3007 55.5778 54.4885 50.3456 77.0879 53.4395C77.2632 53.4395 77.3907 53.5367 77.5341 53.5691C78.1557 53.9255 78.3788 54.6868 78.0282 55.3186L69.4379 70.8369C69.0395 71.5983 68.1948 72.0032 67.3501 71.8251C47.1413 67.9698 31.1879 74.6274 16.5254 74.838C4.82727 75.0162 0.986328 69.4114 0.986328 69.1523C0.986328 68.9741 1.08195 68.8769 1.25727 68.8769C1.25727 68.8769 7.36133 68.8769 17.6888 66.3985C29.4188 43.6717 39.8738 35.7181 51.2532 35.7181C51.2532 35.7181 62.6804 35.7181 65.6926 45.7451C69.3263 39.3143 70.2029 37.7754 70.2029 37.7754C71.0476 36.2527 75.781 25.27 83.9729 14.8704C92.1807 4.50324 98.3804 1.92765 102.986 0V0Z" fill="#FF7B47"/>
</svg>
