<svg width="103" height="43" viewBox="0 0 103 43" fill="none" xmlns="http://www.w3.org/2000/svg">
<path d="M26.5415 3.64743L19.5729 5.11107L19.5407 27.7656C19.5407 31.9497 22.7273 34.6543 26.96 34.6543C29.3097 34.6543 31.0317 34.2247 31.9812 33.7156V28.3383C31.0639 28.7042 26.5576 30.0088 26.5576 25.8406V15.7861H31.9812V9.77243H26.5576L26.5415 3.64743ZM40.8811 11.8565L40.4465 9.77243H34.2665V34.1452H41.3961V17.7429C43.0859 15.5474 45.9345 15.977 46.8518 16.2633V9.77243C45.8862 9.43834 42.5548 8.81789 40.8811 11.8565ZM55.7356 0.354248L48.5578 1.86561V7.6247L55.7356 6.11334V0.354248ZM7.21293 16.9474C7.21293 15.8497 8.14637 15.4202 9.64309 15.4043C11.8157 15.4043 14.5839 16.0565 16.7565 17.2179V10.5679C14.3907 9.64516 12.025 9.27925 9.65918 9.27925C3.86543 9.27925 0.00292969 12.2702 0.00292969 17.2656C0.00292969 25.0929 10.8662 23.8202 10.8662 27.1929C10.8662 28.4974 9.72356 28.927 8.13027 28.927C5.76449 28.927 2.70668 27.9565 0.308711 26.6679V33.0315C2.96418 34.1611 5.65184 34.6383 8.11418 34.6383C14.0528 34.6383 18.1406 32.1247 18.1406 27.0338C18.1406 18.6179 7.21293 20.1293 7.21293 16.9474V16.9474ZM102.987 22.2452C102.987 15.0065 99.4462 9.29516 92.6547 9.29516C85.8631 9.29516 81.727 15.0065 81.727 22.1974C81.727 30.7088 86.6034 34.6383 93.5559 34.6383C96.9678 34.6383 99.5267 33.8747 101.474 32.8088V27.4952C99.5267 28.4656 97.2897 29.0542 94.4572 29.0542C91.6729 29.0542 89.2267 28.0838 88.9048 24.7747H102.89C102.922 24.4088 102.987 22.9293 102.987 22.2452V22.2452ZM88.8404 19.5724C88.8404 16.3906 90.82 15.0542 92.6064 15.0542C94.3606 15.0542 96.2275 16.3906 96.2275 19.5724H88.8404ZM70.6706 9.29516C67.8703 9.29516 66.0678 10.5997 65.07 11.5065L64.6998 9.75652H58.4072V42.3383L65.5528 40.8429L65.5689 32.8565C66.5989 33.6042 68.1278 34.6383 70.6223 34.6383C75.7401 34.6383 80.4073 30.9474 80.4073 21.9747C80.4234 13.7656 75.6918 9.29516 70.6706 9.29516V9.29516ZM68.9647 28.7838C67.2909 28.7838 66.2931 28.1792 65.6011 27.4474L65.5528 16.9474C66.2931 16.1361 67.3231 15.5474 68.9647 15.5474C71.5718 15.5474 73.3743 18.4429 73.3743 22.1338C73.3904 25.9361 71.6201 28.7838 68.9647 28.7838ZM48.5739 34.1452H55.7517V9.77243H48.5739V34.1452Z" fill="#FF7B47"/>
</svg>
