<svg width="105" height="63" viewBox="0 0 105 63" fill="none" xmlns="http://www.w3.org/2000/svg">
<path d="M29.8731 22.8429C29.7564 26.481 31.5902 28.0921 31.6356 29.1152C31.614 29.3235 31.5424 29.5236 31.4269 29.6988C31.3113 29.874 31.1551 30.0192 30.9714 30.1223L28.8979 31.5615C28.6295 31.748 28.3132 31.855 27.9859 31.8699C27.9162 31.8667 26.6591 32.1638 24.6682 27.7564C23.4536 29.2597 21.9081 30.4676 20.1501 31.2875C18.3922 32.1074 16.4683 32.5176 14.5258 32.4867C11.8885 32.6296 4.74137 31.0025 5.1091 23.4581C4.85153 17.3095 10.6266 13.4899 16.5993 13.8128C17.7495 13.816 20.0984 13.8722 24.2114 14.8199V12.311C24.6472 8.06092 21.8301 4.76336 16.9525 5.25808C16.5637 5.25968 13.8098 5.17776 9.52667 6.88196C8.33439 7.42486 8.18212 7.33491 7.78523 7.33491C6.58486 7.33491 7.07894 3.88476 7.30897 3.44787C8.15296 2.41989 13.1181 0.500459 17.9908 0.527765C21.2489 0.242062 24.4896 1.23908 27.0123 3.30331C28.0377 4.44064 28.8201 5.77226 29.3121 7.21775C29.804 8.66323 29.9954 10.1926 29.8747 11.7135L29.8731 22.8429V22.8429ZM15.8736 28.0455C21.127 27.97 23.3512 24.8379 23.8583 23.1513C24.2568 21.5371 24.1903 20.5155 24.1903 18.7503C22.6239 18.3777 20.3689 17.9713 17.7819 17.9681C15.3277 17.785 10.8453 18.8724 11.0202 23.1497C10.8194 25.8466 12.8216 28.1933 15.8736 28.0455V28.0455ZM43.5616 31.7478C42.2883 31.8635 41.6954 30.9672 41.5075 30.0822L33.4402 3.6358C33.2831 3.18927 33.1794 2.72828 33.1292 2.25766C33.0994 2.06363 33.1485 1.86583 33.2658 1.70771C33.383 1.54959 33.5588 1.44409 33.7545 1.4144C33.7933 1.40797 33.4094 1.4144 37.3588 1.4144C38.7811 1.27305 39.2444 2.38295 39.3918 3.08004L45.1783 25.7004L50.55 3.08004C50.6358 2.56284 51.0262 1.30196 52.6235 1.43528H55.4033C55.7548 1.40637 57.203 1.35497 57.4574 3.10092L62.8712 26.0104L68.8439 3.10092C68.9217 2.75077 69.2845 1.27466 70.898 1.43528H74.0925C74.2302 1.4144 75.0888 1.30517 74.943 2.81341C74.8733 3.11056 75.4954 1.10118 66.3978 30.103C66.2115 30.9881 65.617 31.8843 64.3437 31.7687H61.3161C59.5439 31.9534 59.2895 30.2171 59.262 30.042L53.8903 8.01595L48.5801 30.0195C48.5542 30.1946 48.2999 31.9309 46.526 31.7462H43.5616V31.7478ZM87.8636 32.6521C86.9111 32.6537 82.3688 32.6039 78.5716 30.6781C78.1934 30.5193 77.8712 30.2527 77.646 29.9121C77.4208 29.5715 77.3026 29.1723 77.3065 28.7651V27.0384C77.3065 25.6811 78.3108 25.9301 78.7369 26.0923C80.3633 26.7444 81.4065 27.2392 83.4039 27.6343C89.341 28.8438 91.9523 27.2649 92.5922 26.9147C94.7224 25.6603 94.8909 22.7899 93.4427 21.301C91.745 19.8891 90.935 19.8361 84.8359 17.9279C84.0843 17.7207 77.7568 15.7419 77.7422 9.51776C77.6434 4.98181 81.8002 0.494033 89.004 0.530976C91.0565 0.52937 96.5254 1.19434 98.006 3.03989C98.2247 3.37559 98.3333 3.77072 98.3171 4.17067V5.79455C98.3171 6.50771 98.0546 6.86429 97.5282 6.86429C96.2792 6.72616 94.0631 5.07015 89.5645 5.13761C88.4484 5.07978 83.1026 5.28377 83.3424 9.14833C83.2727 12.1937 87.653 13.3357 88.1536 13.4675C94.0599 15.2295 96.0346 15.5218 98.3786 18.2186C101.155 21.7925 99.6584 25.9767 99.0833 27.1235C95.9925 33.1452 87.9997 32.6553 87.8636 32.6521V32.6521ZM94.3758 49.4949C83.0313 57.8023 66.563 62.2242 52.502 62.2242C33.5294 62.3482 15.1961 55.431 1.10623 42.8323C0.0484116 41.8863 0.981496 40.59 2.26773 41.3112C17.8976 50.1762 35.5939 54.8341 53.6003 54.8227C67.047 54.7512 80.3469 52.0465 92.7364 46.8639C94.6447 46.0608 96.263 48.1168 94.3758 49.4949V49.4949ZM99.1044 44.1478C97.6529 42.2975 89.5014 43.2837 85.8516 43.7157C84.7517 43.8394 84.5654 42.8934 85.5617 42.1947C92.0528 37.6699 102.714 38.9662 103.938 40.4872C105.161 42.0083 103.606 52.5997 97.5298 57.6593C96.5967 58.4415 95.7041 58.0288 96.1188 57.0008C97.486 53.5876 100.556 45.9998 99.1044 44.1478Z" fill="#FF7B47"/>
</svg>
