<svg width="77" height="73" viewBox="0 0 77 73" fill="none" xmlns="http://www.w3.org/2000/svg">
<path d="M67.9123 28.0157C65.5173 28.0157 63.4098 29.0099 61.861 30.5653C56.161 26.6045 48.4812 24.0549 39.9711 23.7823L44.3938 3.7698L58.4762 6.94486C58.4762 10.4086 61.2862 13.2308 64.735 13.2308C68.2476 13.2308 71.0736 10.3284 71.0736 6.86468C71.0736 3.40098 68.2636 0.498535 64.735 0.498535C62.2762 0.498535 60.1526 1.98985 59.0988 4.02637L43.5476 0.562678C42.7652 0.354214 41.9988 0.915462 41.7913 1.70121L36.9375 23.7662C28.4913 24.119 20.8913 26.6687 15.1753 30.6295C13.6266 29.0099 11.4392 28.0157 9.04423 28.0157C0.166918 28.0157 -2.73896 39.9783 5.38793 44.0673C5.10053 45.3342 4.9728 46.6812 4.9728 48.0281C4.9728 61.466 20.0451 72.3542 38.5501 72.3542C57.135 72.3542 72.2073 61.466 72.2073 48.0281C72.2073 46.6812 72.0636 45.27 71.7123 44.0032C79.6795 39.8981 76.7417 28.0157 67.9123 28.0157V28.0157ZM18.2728 44.9172C18.2728 41.3894 21.0829 38.5511 24.6115 38.5511C28.0602 38.5511 30.8703 41.3734 30.8703 44.9172C30.8703 48.3809 28.0602 51.2032 24.6115 51.2032C21.0989 51.2192 18.2728 48.3809 18.2728 44.9172V44.9172ZM52.4888 59.9105C46.677 65.7475 30.2795 65.7475 24.4678 59.9105C23.8291 59.3493 23.8291 58.3551 24.4678 57.7137C25.0266 57.1524 26.0165 57.1524 26.5753 57.7137C31.014 62.2838 45.735 62.364 50.3652 57.7137C50.9241 57.1524 51.914 57.1524 52.4728 57.7137C53.1274 58.3551 53.1274 59.3493 52.4888 59.9105ZM52.361 51.2192C48.9123 51.2192 46.1022 48.397 46.1022 44.9333C46.1022 41.4054 48.9123 38.5671 52.361 38.5671C55.8736 38.5671 58.6997 41.3894 58.6997 44.9333C58.6837 48.3809 55.8736 51.2192 52.361 51.2192Z" fill="#FF7B47"/>
</svg>
